<?xml version="1.0" encoding="UTF-8" standalone="no"?>
<svg xmlns:dc="http://purl.org/dc/elements/1.1/" xmlns:cc="http://creativecommons.org/ns#" xmlns:rdf="http://www.w3.org/1999/02/22-rdf-syntax-ns#" xmlns:svg="http://www.w3.org/2000/svg" xmlns="http://www.w3.org/2000/svg" xmlns:sodipodi="http://sodipodi.sourceforge.net/DTD/sodipodi-0.dtd" xmlns:inkscape="http://www.inkscape.org/namespaces/inkscape" width="40" height="40" id="svg2" version="1.1" inkscape:version="0.48.5 r10040" sodipodi:docname="meteor_logo.svg">
  <metadata id="metadata10">
    <rdf:RDF>
      <cc:Work rdf:about="">
        <dc:format>image/svg+xml</dc:format>
        <dc:type rdf:resource="http://purl.org/dc/dcmitype/StillImage" />
      </cc:Work>
    </rdf:RDF>
  </metadata>
  <defs id="defs8" />
  <sodipodi:namedview pagecolor="#ffffff" bordercolor="#666666" borderopacity="1" objecttolerance="10" gridtolerance="10" guidetolerance="10" inkscape:pageopacity="0" inkscape:pageshadow="2" inkscape:window-width="958" inkscape:window-height="350" id="namedview6" showgrid="false" inkscape:zoom="2.95" inkscape:cx="30.592645" inkscape:cy="13.849622" inkscape:window-x="960" inkscape:window-y="353" inkscape:window-maximized="0" inkscape:current-layer="layer1" />
  <g id="layer1" transform="translate(0,-1012.3622)">
    <path d="m 23.906248,1047.6789 c 3.97599,-0.646 9.187417,-4.1585 10.301658,-6.9432 0.606447,-1.5157 0.493369,-2.4628 -0.621684,-5.207 -1.1291,-2.7787 -1.031897,-3.9251 0.535991,-6.3212 1.643312,-2.5114 1.729049,-3.7432 0.393709,-5.6566 -0.564484,-0.8089 -1.495881,-1.6162 -2.336647,-2.0254 -0.768913,-0.3743 -2.241775,-1.0815 -3.273025,-1.5717 -1.03125,-0.4902 -2.909771,-1.4439 -4.17449,-2.1194 -3.065131,-1.6371 -5.441478,-1.846 -7.947806,-0.6985 -1.484009,0.6794 -1.775868,0.9655 -2.249062,2.2045 -0.493591,1.2924 -0.792118,1.5624 -3.235931,2.9259 -1.4806988,0.8262 -3.5917743,2.351 -4.6912775,3.3885 -1.8520965,1.7477 -2.0102902,2.0028 -2.1512339,3.4696 -0.1263718,1.3152 0.03905,2.0522 0.9769593,4.3528 0.7818905,1.9178 1.1290905,3.2541 1.1290905,4.3458 0,1.2364 0.1343997,1.6603 0.6231844,1.9655 0.3427497,0.2141 1.0481687,1.1422 1.5675996,2.0626 1.3647586,2.4183 1.8018776,2.7117 4.5474146,3.0525 2.553225,0.317 4.110562,0.9262 4.418396,1.7284 0.456316,1.1892 2.8348,1.5916 6.187154,1.0469 z m -3.083697,-1.9177 c -0.484178,-0.1295 -1.524769,-0.7375 -2.312431,-1.3512 -1.554206,-1.2108 -3.066488,-1.7442 -4.767984,-1.6816 -1.787319,0.066 -2.389712,-0.2939 -3.120197,-1.8625 -0.377131,-0.8099 -0.8637932,-1.6834 -1.081474,-1.9412 -0.2176818,-0.2578 -0.4720809,-1.073 -0.5653375,-1.8114 -0.093256,-0.7385 -0.6742499,-2.4055 -1.2910941,-3.7044 -0.6288811,-1.3242 -1.121534,-2.8459 -1.121534,-3.4641 0,-2.2238 1.7779156,-3.9419 6.8749996,-6.6435 2.400524,-1.2723 2.665505,-1.5033 2.752374,-2.3993 0.30215,-3.1166 7.423021,-3.1115 10.333746,0.01 0.408303,0.4375 1.181741,0.8903 1.71875,1.0064 1.622937,0.3506 3.850544,1.6234 4.542703,2.5954 0.891672,1.2522 0.818594,2.3928 -0.239856,3.7436 -1.953857,2.4934 -2.075179,3.9055 -0.676382,7.8724 0.512235,1.4527 0.93411,2.9528 0.937501,3.3335 0.02428,2.7278 -8.528691,7.2246 -11.983784,6.3006 z m 6.889287,-6.0962 c 0.997169,-1.5219 -0.389278,-2.5645 -1.629978,-1.2258 -0.834541,0.9005 -1.644475,0.8781 -2.729871,-0.075 -0.422208,-0.3709 -0.641097,-0.4001 -0.918745,-0.1225 -0.563271,0.5633 0.436738,2.3567 1.638688,2.9388 0.942478,0.4565 1.078831,0.447 2.083252,-0.1457 0.591125,-0.3487 1.291616,-0.965 1.556651,-1.3695 z m -8.906553,-0.9466 c 0.313341,-0.2836 0.569713,-0.7093 0.569713,-0.946 0,-0.5785 -1.273994,-1.0306 -1.932582,-0.6858 -0.842859,0.4413 -1.092918,0.3327 -1.500611,-0.6515 -0.43561,-1.0517 -1.500879,-1.5545 -1.913535,-0.9032 -0.430365,0.6792 -0.330409,1.1613 0.553507,2.6696 0.831215,1.4183 0.832737,1.4192 2.242786,1.2259 0.776054,-0.1064 1.667379,-0.4254 1.980722,-0.709 z m -3.492787,-7.7867 c 0.08594,-0.846 0.296875,-1.5355 0.46875,-1.5322 0.662585,0.013 3.573591,1.7345 4.026896,2.3817 0.398576,0.569 0.555704,0.6149 0.959254,0.28 1.115927,-0.9262 0.393152,-2.324 -1.611541,-3.1167 -0.550215,-0.2175 -1.221425,-0.7329 -1.491578,-1.1452 -1.16289,-1.7748 -4.53928,-0.1785 -4.53928,2.1461 0,1.1566 1.067844,2.8408 1.674825,2.6416 0.196034,-0.064 0.426737,-0.8093 0.512674,-1.6553 z m 12.19504,-4.4289 c 0.38185,-0.6445 0.712147,-1.5937 0.733991,-2.1094 0.03555,-0.8391 -0.06688,-0.9477 -0.975903,-1.0354 -0.805722,-0.078 -1.017682,0.019 -1.025567,0.4688 -0.0054,0.3116 -0.216402,0.8396 -0.46875,1.1732 -0.621084,0.8212 -0.578593,1.9489 0.08807,2.3372 0.816895,0.4757 0.895569,0.4359 1.648159,-0.8344 z" id="path3801" style="fill:#ffffff;stroke:#000000;stroke-opacity:1;stroke-width:0.25" inkscape:connector-curvature="0" sodipodi:nodetypes="scssccsscscsscscsccsccccsccscsccscssccccccccccsscccccssccccsscscsccccc" />
  </g>
</svg>
