<?xml version="1.0" encoding="UTF-8" standalone="no"?>
<svg
   xmlns:dc="http://purl.org/dc/elements/1.1/"
   xmlns:cc="http://creativecommons.org/ns#"
   xmlns:rdf="http://www.w3.org/1999/02/22-rdf-syntax-ns#"
   xmlns:svg="http://www.w3.org/2000/svg"
   xmlns="http://www.w3.org/2000/svg"
   width="100%"
   height="100%"
   viewBox="0 0 40 40"
   preserveAspectRatio="xMaxYMid meet"
   id="svg2"
   version="1.1">
  <path class="meteor-logo-shape"
     style="fill:#7b7b7b;fill-opacity:1;stroke:none"
     d="M 19.59375 4.0625 C 18.647257 4.1075387 17.721123 4.3509375 16.78125 4.78125 C 15.297241 5.46065 15.004444 5.72975 14.53125 6.96875 C 14.037659 8.26115 13.756313 8.54275 11.3125 9.90625 C 9.8318012 10.73245 7.6932532 12.24375 6.59375 13.28125 C 4.7416535 15.02895 4.6096937 15.2832 4.46875 16.75 C 4.3423782 18.0652 4.4995907 18.8244 5.4375 21.125 C 6.2193905 23.0428 6.5625 24.37705 6.5625 25.46875 C 6.5625 26.70515 6.6987153 27.1323 7.1875 27.4375 C 7.5302497 27.6516 8.2305691 28.5796 8.75 29.5 C 10.114759 31.9183 10.566963 32.19045 13.3125 32.53125 C 15.865725 32.84825 17.410916 33.47905 17.71875 34.28125 C 18.175066 35.47045 20.553896 35.8572 23.90625 35.3125 C 27.88224 34.6665 33.104509 31.1597 34.21875 28.375 C 34.825197 26.8593 34.708803 25.90045 33.59375 23.15625 C 32.46465 20.37755 32.557112 19.23985 34.125 16.84375 C 35.768312 14.33235 35.86659 13.1009 34.53125 11.1875 C 33.966766 10.3786 33.028266 9.56545 32.1875 9.15625 C 31.418587 8.78195 29.9375 8.08395 28.90625 7.59375 C 27.875 7.10355 25.983469 6.14425 24.71875 5.46875 C 22.803043 4.4455625 21.171238 3.9874355 19.59375 4.0625 z M 20.375 6.21875 C 22.556827 6.2206375 25.075888 7.00175 26.53125 8.5625 C 26.939553 9 27.712991 9.4464 28.25 9.5625 C 29.872937 9.9131 32.089091 11.18425 32.78125 12.15625 C 33.672922 13.40845 33.5897 14.55545 32.53125 15.90625 C 30.577393 18.39965 30.476203 19.81435 31.875 23.78125 C 32.387235 25.23395 32.809109 26.71305 32.8125 27.09375 C 32.83678 29.82155 24.267593 34.33025 20.8125 33.40625 C 20.328322 33.27675 19.287662 32.6762 18.5 32.0625 C 16.945794 30.8517 15.451496 30.3124 13.75 30.375 C 11.962681 30.441 11.355485 30.0686 10.625 28.5 C 10.247869 27.6901 9.7489308 26.8203 9.53125 26.5625 C 9.3135682 26.3047 9.0620066 25.4884 8.96875 24.75 C 8.875494 24.0115 8.3043442 22.33015 7.6875 21.03125 C 7.0586189 19.70705 6.5625 18.21195 6.5625 17.59375 C 6.5625 15.36995 8.340416 13.6391 13.4375 10.9375 C 15.838024 9.6652 16.100631 9.42725 16.1875 8.53125 C 16.338575 6.97295 18.193173 6.2168625 20.375 6.21875 z M 26.78125 10.96875 C 26.381353 10.984209 26.255914 11.1314 26.25 11.46875 C 26.2446 11.78035 26.033598 12.2914 25.78125 12.625 C 25.160166 13.4462 25.208337 14.58045 25.875 14.96875 C 26.691895 15.44445 26.747406 15.3953 27.5 14.125 C 27.88185 13.4805 28.228156 12.54695 28.25 12.03125 C 28.28555 11.19215 28.190273 11.0877 27.28125 11 C 27.079819 10.9805 26.914549 10.963597 26.78125 10.96875 z M 16.09375 14.6875 C 14.718448 14.73841 13.125 15.995587 13.125 17.59375 C 13.125 18.75035 14.205519 20.41795 14.8125 20.21875 C 15.008534 20.15475 15.226563 19.4085 15.3125 18.5625 C 15.39844 17.7165 15.609375 17.02795 15.78125 17.03125 C 16.443835 17.04425 19.359195 18.75905 19.8125 19.40625 C 20.211076 19.97525 20.3777 20.0224 20.78125 19.6875 C 21.897177 18.7613 21.160943 17.38645 19.15625 16.59375 C 18.606035 16.37625 17.926403 15.8498 17.65625 15.4375 C 17.292847 14.882875 16.718887 14.664359 16.09375 14.6875 z M 14.4375 22.875 C 14.272795 22.903019 14.134414 22.993425 14.03125 23.15625 C 13.600885 23.83545 13.709834 24.33545 14.59375 25.84375 C 15.424965 27.26205 15.402451 27.2558 16.8125 27.0625 C 17.588554 26.9561 18.499157 26.62735 18.8125 26.34375 C 19.125841 26.06015 19.375 25.64295 19.375 25.40625 C 19.375 24.82775 18.096088 24.37395 17.4375 24.71875 C 16.594641 25.16005 16.345193 25.0467 15.9375 24.0625 C 15.610792 23.273725 14.931615 22.790944 14.4375 22.875 z M 27.40625 25.46875 C 27.033381 25.401323 26.559013 25.560487 26.09375 26.0625 C 25.259209 26.963 24.429146 26.9531 23.34375 26 C 22.921542 25.6291 22.715148 25.5974 22.4375 25.875 C 21.874229 26.4383 22.86055 28.2304 24.0625 28.8125 C 25.004978 29.269 25.151829 29.2802 26.15625 28.6875 C 26.747375 28.3388 27.453715 27.717 27.71875 27.3125 C 28.341981 26.361313 28.027699 25.581129 27.40625 25.46875 z "
     id="rect3803" />
</svg>
