<?xml version="1.0" encoding="UTF-8" standalone="no"?>
<svg viewBox="0 0 250 61" preserveAspectRatio="xMaxYMid meet" version="1.1" xmlns="http://www.w3.org/2000/svg" xmlns:xlink="http://www.w3.org/1999/xlink">
    <g id="Page-1" stroke="none" stroke-width="1" fill="none" fill-rule="evenodd">
        <g id="Vectors" transform="translate(-75.000000, -78.000000)">
            <g id="meteor-logo" transform="translate(75.000000, 78.000000)">
                <g id="icon" transform="translate(148.214286, 0.000000)" fill="#DF4F4F">
                    <path d="M0.104982061,0.104895105 L52.4910307,55.5944056 C52.4910307,55.5944056 54.2757257,56.8531469 55.6404925,55.3846154 C57.0052593,53.9160839 55.9554387,52.4475524 55.9554387,52.4475524 L0.104982061,0.104895105 Z"></path>
                    <path d="M16.6921477,5.34965035 L56.5853311,48.3566434 C56.5853311,48.3566434 58.3700261,49.6153846 59.7347929,48.1468531 C61.0995597,46.6783217 60.0497391,45.2097902 60.0497391,45.2097902 L16.6921477,5.34965035 Z"></path>
                    <path d="M5.03913894,16.5734266 L44.9323222,59.5804196 C44.9323222,59.5804196 46.7170173,60.8391608 48.0817841,59.3706294 C49.4465509,57.9020979 48.3967303,56.4335664 48.3967303,56.4335664 L5.03913894,16.5734266 Z"></path>
                    <path d="M30.7144423,9.86013986 L58.5854276,39.906558 C58.5854276,39.906558 59.8322874,40.7859654 60.7857685,39.7599901 C61.7392496,38.7340149 61.0058026,37.7080396 61.0058026,37.7080396 L30.7144423,9.86013986 Z"></path>
                    <path d="M8.87817359,29.5804196 L36.7491588,59.6268377 C36.7491588,59.6268377 37.9960187,60.5062451 38.9494997,59.4802698 C39.9029808,58.4542946 39.1695338,57.4283193 39.1695338,57.4283193 L8.87817359,29.5804196 Z"></path>
                    <path d="M45.0373043,16.3636364 L57.6693731,30.0230458 C57.6693731,30.0230458 58.2861542,30.4351138 58.7578103,29.9543678 C59.2294664,29.4736219 58.866654,28.9928759 58.866654,28.9928759 L45.0373043,16.3636364 Z"></path>
                    <path d="M15.8522913,43.4265734 L28.48436,57.0859829 C28.48436,57.0859829 29.1011411,57.4980509 29.5727973,57.0173049 C30.0444534,56.5365589 29.681641,56.0558129 29.681641,56.0558129 L15.8522913,43.4265734 Z"></path>
                </g>
                <g id="letters" transform="translate(0.000000, 22.574257)" fill="#7b7b7b">
                    <path d="M217.857143,-0.00119768094 L217.857143,36.8316832 L226.190476,36.8316843 L226.190476,24.950495 L232.440476,24.950495 L240.47619,36.8316832 L250,36.8316832 L241.071429,24.0594059 C241.071429,24.0594059 248.999999,20.9257432 248.999999,12.4257423 C248.999999,0.425742581 238.095238,-1.0535843e-14 238.095238,-1.0535843e-14 L217.857143,-0.00119768094 Z M226.190476,7.12871287 L226.190476,17.8217822 L236.904762,17.8217822 C236.904762,17.8217822 241,17.8213076 241,12.4747727 C241,6.92526771 236.011905,7.12871287 236.011905,7.12871287 L226.190476,7.12871287 Z"></path>
                    <path d="M125.595238,-1.25224363e-14 L125.595238,36.8316832 L153.571429,36.8316832 L153.571429,29.7029703 L133.928571,29.7029703 L133.928571,21.980198 L150.892857,21.980198 L150.892857,14.8514851 L133.928571,14.8514851 L133.928571,7.12300287 L153.571429,7.12300287 L153.571429,-5.78986803e-14 L125.595238,-1.25224363e-14 Z"></path>
                    <path d="M85.1190476,-5.68434189e-14 L85.1190476,7.12871287 L96.1309524,7.12871287 L96.1309524,36.8316832 L104.464286,36.8316832 L104.464286,7.12871287 L115.47619,7.12871287 L115.47619,1.06933164e-14 L85.1190476,-5.68434189e-14 Z"></path>
                    <path d="M47.0238095,-1.25224363e-14 L47.0238095,36.8316832 L75,36.8316832 L75,29.7029703 L55.3571429,29.7029703 L55.3571429,21.980198 L72.3214286,21.980198 L72.3214286,14.8514851 L55.3571429,14.8514851 L55.3571429,7.12300287 L75.0000008,7.12300287 L75.0000008,-5.78986803e-14 L47.0238095,-1.25224363e-14 Z"></path>
                    <path d="M6.6611392e-09,-0.000927971173 L6.6611392e-09,36.8326108 L8.32775479,36.8319529 L8.32775479,13.6624384 L18.4468023,28.5139235 L28.5714289,13.6624379 L28.5714289,36.8326108 L36.9047619,36.8326116 L36.9047619,-0.000928391959 L28.5714286,-0.000928391959 L18.4468023,15.1475869 L8.32775491,-0.000928391959 L6.6611392e-09,-0.000927971173 Z"></path>
                </g>
            </g>
        </g>
    </g>
</svg>
