<svg xmlns="http://www.w3.org/2000/svg" viewBox="0 0 250 59.977626" preserveAspectRatio="xMinYMid meet"><g fill="#df4f4f"><path d="M148.32 0l52.385 55.49s1.785 1.258 3.15-.21c1.365-1.47.315-2.937.315-2.937L148.32 0z"/><path d="M164.906 5.245L204.8 48.252s1.784 1.258 3.15-.21c1.364-1.47.314-2.937.314-2.937l-43.358-39.86z"/><path d="M153.253 16.47l39.894 43.006s1.784 1.258 3.15-.21c1.364-1.47.314-2.937.314-2.937l-43.357-39.86z"/><path d="M178.93 9.755l27.87 30.047s1.247.88 2.2-.147c.954-1.026.22-2.052.22-2.052L178.93 9.755z"/><path d="M157.092 29.476l27.87 30.046s1.248.88 2.202-.147c.953-1.026.22-2.052.22-2.052l-30.292-27.847z"/><path d="M193.252 16.26l12.632 13.658s.616.412 1.088-.07c.472-.48.11-.96.11-.96l-13.83-12.63z"/><path d="M164.067 43.322l12.632 13.66s.615.41 1.087-.07.11-.96.11-.96l-13.83-12.63z"/></g><path d="M217.844 22.458V59.3h8.344V47.427h6.25l8.03 11.875H250l-8.938-12.78S249 43.395 249 34.895c0-12-10.906-12.437-10.906-12.437h-20.25zm8.28 7.125h10.407s4.44-.265 4.44 5.375-4.44 5.375-4.44 5.375h-10.405v-10.75z" fill="#7b7b7b"/><path d="M125.595 22.47V59.3h27.976v-7.128h-19.64V44.45h16.963v-7.13H133.93v-7.728h19.64V22.47h-27.975z" fill="#7b7b7b"/><path d="M85.12 22.47v7.128h11.01V59.3h8.334V29.6h11.012v-7.13H85.12z" fill="#7b7b7b"/><path d="M47.024 22.47V59.3H75v-7.128H55.357V44.45H72.32v-7.13H55.358v-7.728H75V22.47H47.024z" fill="#7b7b7b"/><path d="M0 22.468v36.834h8.328V36.13l10.12 14.85 10.123-14.85v23.17h8.335V22.468H28.57l-10.123 15.15-10.12-15.15H0z" fill="#7b7b7b"/></svg>
